<svg width="1423" height="470" viewBox="0 0 1423 470" fill="none" xmlns="http://www.w3.org/2000/svg">
<g filter="url(#filter0_d_79_22)">
<path d="M954.4 204.4H991.6V370H954.4V204.4ZM951.6 144.4C951.6 138.533 953.867 133.6 958.4 129.6C963.2 125.6 968.4 123.6 974 123.6C979.6 123.6 984.533 125.6 988.8 129.6C993.333 133.6 995.6 138.533 995.6 144.4C995.6 150.533 993.333 155.6 988.8 159.6C984.533 163.333 979.6 165.2 974 165.2C968.4 165.2 963.2 163.2 958.4 159.2C953.867 155.2 951.6 150.267 951.6 144.4Z" fill="#A855F7"/>
</g>
<g filter="url(#filter1_d_79_22)">
<path d="M1054 370V237.6H1025.6V204.4H1054V134.4C1054 110.4 1059.33 92 1070 79.2C1080.93 66.4 1096.93 60 1118 60C1123.6 60 1129.73 60.8 1136.4 62.4C1143.33 64 1149.33 66.6667 1154.4 70.4L1138.8 97.2C1136.4 94.8 1133.73 93.2 1130.8 92.4C1127.87 91.3333 1124.93 90.8 1122 90.8C1112.13 90.8 1104.53 94.1333 1099.2 100.8C1093.87 107.467 1091.2 118.8 1091.2 134.8V204.4H1143.6V237.6H1091.2V370H1054Z" fill="#45DAFD"/>
</g>
<g filter="url(#filter2_d_79_22)">
<path d="M208.8 354.8C201.333 360.667 192.4 365.333 182 368.8C171.6 372.267 161.2 374 150.8 374C132.667 374 116.8 370.4 103.2 363.2C89.6 356 78.9333 346 71.2 333.2C63.7333 320.133 60 304.8 60 287.2C60 269.6 64 254.267 72 241.2C80.2667 228.133 90.9333 218.133 104 211.2C117.333 204 131.6 200.4 146.8 200.4C160.133 200.4 172 202.267 182.4 206C193.067 209.733 202.133 214.8 209.6 221.2L191.2 245.2C186.4 241.467 180.533 238.133 173.6 235.2C166.667 232.267 158.8 230.8 150 230.8C140.4 230.8 131.467 233.333 123.2 238.4C115.2 243.2 108.8 249.867 104 258.4C99.4667 266.933 97.2 276.533 97.2 287.2C97.2 297.333 99.6 306.8 104.4 315.6C109.2 324.133 115.867 330.933 124.4 336C132.933 340.8 142.667 343.2 153.6 343.2C160.8 343.2 167.333 342.133 173.2 340C179.333 337.867 184.8 334.933 189.6 331.2L208.8 354.8ZM240.822 370V60.4H277.222V242.8L276.422 236C282.022 225.067 290.555 216 302.022 208.8C313.755 201.6 327.489 198 343.222 198C358.955 198 371.755 202.667 381.622 212C391.755 221.067 396.955 232.933 397.222 247.6V370H359.622V260.8C359.355 251.733 356.689 244.4 351.622 238.8C346.822 232.933 339.222 230 328.822 230C319.222 230 310.555 232.8 302.822 238.4C295.089 243.733 288.955 251.067 284.422 260.4C280.155 269.733 278.022 280.4 278.022 292.4V370H240.822ZM522.716 374C503.782 374 487.516 370.267 473.916 362.8C460.316 355.067 449.782 344.667 442.316 331.6C435.116 318.267 431.516 303.067 431.516 286C431.516 269.733 435.649 254.933 443.916 241.6C452.182 228.267 463.249 217.6 477.116 209.6C490.982 201.6 506.449 197.6 523.516 197.6C545.382 197.6 563.516 204 577.916 216.8C592.316 229.6 602.049 247.2 607.116 269.6L470.716 317.6L461.916 295.6L573.916 254.8L565.916 260C562.716 251.2 557.382 243.6 549.916 237.2C542.449 230.533 532.716 227.2 520.716 227.2C510.582 227.2 501.516 229.733 493.516 234.8C485.516 239.6 479.249 246.267 474.716 254.8C470.182 263.333 467.916 273.067 467.916 284C467.916 295.467 470.316 305.6 475.116 314.4C479.916 322.933 486.449 329.733 494.716 334.8C503.249 339.6 512.849 342 523.516 342C530.716 342 537.649 340.667 544.316 338C551.249 335.333 557.649 331.867 563.516 327.6L580.716 355.2C572.449 360.8 563.116 365.333 552.716 368.8C542.582 372.267 532.582 374 522.716 374ZM670.928 204.4L674.128 241.6L672.528 238.4C678.661 225.867 687.328 216 698.528 208.8C709.995 201.6 723.061 198 737.728 198C747.061 198 755.328 199.467 762.528 202.4C769.728 205.333 775.595 209.6 780.128 215.2C784.928 220.533 787.995 227.2 789.328 235.2L787.328 236.4C793.728 224.4 802.528 215.067 813.728 208.4C825.195 201.467 837.195 198 849.728 198C865.995 198 878.795 202.667 888.128 212C897.728 221.067 902.661 232.933 902.928 247.6V370H865.728V260.8C865.461 252.267 863.328 245.2 859.328 239.6C855.595 233.733 848.928 230.533 839.328 230C829.728 230 821.061 232.933 813.328 238.8C805.861 244.667 799.995 252.267 795.728 261.6C791.461 270.667 789.195 280.533 788.928 291.2V370H751.728V260.8C751.461 252.267 749.195 245.2 744.928 239.6C740.928 233.733 734.128 230.533 724.528 230C714.661 230 705.995 232.933 698.528 238.8C691.061 244.667 685.195 252.267 680.928 261.6C676.928 270.933 674.928 280.933 674.928 291.6V370H637.728V204.4H670.928Z" fill="#A855F7"/>
</g>
<g filter="url(#filter3_d_79_22)">
<path d="M1178.4 204.4H1215.6V370H1178.4V204.4ZM1175.6 144.4C1175.6 138.533 1177.87 133.6 1182.4 129.6C1187.2 125.6 1192.4 123.6 1198 123.6C1203.6 123.6 1208.53 125.6 1212.8 129.6C1217.33 133.6 1219.6 138.533 1219.6 144.4C1219.6 150.533 1217.33 155.6 1212.8 159.6C1208.53 163.333 1203.6 165.2 1198 165.2C1192.4 165.2 1187.2 163.2 1182.4 159.2C1177.87 155.2 1175.6 150.267 1175.6 144.4ZM1279.96 131.6H1317.16V205.2H1362.76V234.4H1317.16V370H1279.96V234.4H1249.56V205.2H1279.96V131.6Z" fill="#2CFBFF"/>
</g>
<path d="M954.4 204.4H991.6V370H954.4V204.4ZM951.6 144.4C951.6 138.533 953.867 133.6 958.4 129.6C963.2 125.6 968.4 123.6 974 123.6C979.6 123.6 984.533 125.6 988.8 129.6C993.333 133.6 995.6 138.533 995.6 144.4C995.6 150.533 993.333 155.6 988.8 159.6C984.533 163.333 979.6 165.2 974 165.2C968.4 165.2 963.2 163.2 958.4 159.2C953.867 155.2 951.6 150.267 951.6 144.4ZM1053.56 370V237.6H1025.16V204.4H1053.56V134.4C1053.56 110.4 1058.9 92 1069.56 79.2C1080.5 66.4 1096.5 60 1117.56 60C1123.16 60 1129.3 60.8 1135.96 62.4C1142.9 64 1148.9 66.6667 1153.96 70.4L1138.36 97.2C1135.96 94.8 1133.3 93.2 1130.36 92.4C1127.43 91.3333 1124.5 90.8 1121.56 90.8C1111.7 90.8 1104.1 94.1333 1098.76 100.8C1093.43 107.467 1090.76 118.8 1090.76 134.8V204.4H1143.16V237.6H1090.76V370H1053.56Z" fill="url(#paint0_linear_79_22)"/>
<defs>
<filter id="filter0_d_79_22" x="891.6" y="63.6001" width="164" height="366.4" filterUnits="userSpaceOnUse" color-interpolation-filters="sRGB">
<feFlood flood-opacity="0" result="BackgroundImageFix"/>
<feColorMatrix in="SourceAlpha" type="matrix" values="0 0 0 0 0 0 0 0 0 0 0 0 0 0 0 0 0 0 127 0" result="hardAlpha"/>
<feOffset/>
<feGaussianBlur stdDeviation="30"/>
<feComposite in2="hardAlpha" operator="out"/>
<feColorMatrix type="matrix" values="0 0 0 0 0.658824 0 0 0 0 0.333333 0 0 0 0 0.968627 0 0 0 1 0"/>
<feBlend mode="normal" in2="BackgroundImageFix" result="effect1_dropShadow_79_22"/>
<feBlend mode="normal" in="SourceGraphic" in2="effect1_dropShadow_79_22" result="shape"/>
</filter>
<filter id="filter1_d_79_22" x="965.6" y="0" width="248.8" height="430" filterUnits="userSpaceOnUse" color-interpolation-filters="sRGB">
<feFlood flood-opacity="0" result="BackgroundImageFix"/>
<feColorMatrix in="SourceAlpha" type="matrix" values="0 0 0 0 0 0 0 0 0 0 0 0 0 0 0 0 0 0 127 0" result="hardAlpha"/>
<feOffset/>
<feGaussianBlur stdDeviation="30"/>
<feComposite in2="hardAlpha" operator="out"/>
<feColorMatrix type="matrix" values="0 0 0 0 0.439216 0 0 0 0 0.631373 0 0 0 0 0.984314 0 0 0 1 0"/>
<feBlend mode="normal" in2="BackgroundImageFix" result="effect1_dropShadow_79_22"/>
<feBlend mode="normal" in="SourceGraphic" in2="effect1_dropShadow_79_22" result="shape"/>
</filter>
<filter id="filter2_d_79_22" x="0" y="0.399902" width="962.928" height="433.6" filterUnits="userSpaceOnUse" color-interpolation-filters="sRGB">
<feFlood flood-opacity="0" result="BackgroundImageFix"/>
<feColorMatrix in="SourceAlpha" type="matrix" values="0 0 0 0 0 0 0 0 0 0 0 0 0 0 0 0 0 0 127 0" result="hardAlpha"/>
<feOffset/>
<feGaussianBlur stdDeviation="30"/>
<feComposite in2="hardAlpha" operator="out"/>
<feColorMatrix type="matrix" values="0 0 0 0 0.658824 0 0 0 0 0.333333 0 0 0 0 0.968627 0 0 0 1 0"/>
<feBlend mode="normal" in2="BackgroundImageFix" result="effect1_dropShadow_79_22"/>
<feBlend mode="normal" in="SourceGraphic" in2="effect1_dropShadow_79_22" result="shape"/>
</filter>
<filter id="filter3_d_79_22" x="1115.6" y="63.6001" width="307.163" height="366.4" filterUnits="userSpaceOnUse" color-interpolation-filters="sRGB">
<feFlood flood-opacity="0" result="BackgroundImageFix"/>
<feColorMatrix in="SourceAlpha" type="matrix" values="0 0 0 0 0 0 0 0 0 0 0 0 0 0 0 0 0 0 127 0" result="hardAlpha"/>
<feOffset/>
<feGaussianBlur stdDeviation="30"/>
<feComposite in2="hardAlpha" operator="out"/>
<feColorMatrix type="matrix" values="0 0 0 0 0.172549 0 0 0 0 0.984314 0 0 0 0 1 0 0 0 1 0"/>
<feBlend mode="normal" in2="BackgroundImageFix" result="effect1_dropShadow_79_22"/>
<feBlend mode="normal" in="SourceGraphic" in2="effect1_dropShadow_79_22" result="shape"/>
</filter>
<linearGradient id="paint0_linear_79_22" x1="922" y1="268.789" x2="1160" y2="271.211" gradientUnits="userSpaceOnUse">
<stop stop-color="#A855F7"/>
<stop offset="0.168269" stop-color="#A855F7"/>
<stop offset="0.745192" stop-color="#2CFBFF"/>
<stop offset="1" stop-color="#2CFBFF"/>
</linearGradient>
</defs>
</svg>
