<svg xmlns="http://www.w3.org/2000/svg" viewBox="0 0 100 100">
  <defs>
    <style>
      .flask-stroke {
        fill: none;
        stroke: #ffffff;
        stroke-width: 5;
        stroke-linecap: round;
        stroke-linejoin: round;
      }
      .flask-fill {
        fill: #C4B5FD;
      }
      .sparkle {
        fill: #D1C4E9;
      }
    </style>
  </defs>

  <rect x="0" y="0" width="100" height="100" rx="20" ry="20" fill="#5B21B6" />

  <path class="flask-fill" d="M 31.5 51 L 68.5 51 L 82 77 C 84.5 81 81 86 75 86 L 25 86 C 19 86 15.5 81 18 77 Z" />

  <path class="flask-stroke" d="M 42 21 L 42 31 L 18 77 C 15.5 81 19 86 25 86 L 75 86 C 81 86 84.5 81 82 77 L 58 31 L 58 21" />

  <path class="flask-stroke" d="M 38 21 L 62 21" />

  <circle class="sparkle" cx="50" cy="41" r="3.75" />
  <circle class="sparkle" cx="58" cy="34" r="2.25" />
</svg>
